<mxfile host="65bd71144e">
    <diagram id="6wcHTxkEM7Yt4592Q1DW" name="Page-1">
        <mxGraphModel dx="617" dy="1868" grid="1" gridSize="10" guides="1" tooltips="1" connect="1" arrows="1" fold="1" page="1" pageScale="1" pageWidth="850" pageHeight="1100" math="0" shadow="0">
            <root>
                <mxCell id="0"/>
                <mxCell id="1" parent="0"/>
                <mxCell id="2" value="root" style="swimlane;whiteSpace=wrap;html=1;fillColor=#6a00ff;fontColor=#ffffff;strokeColor=#F0F0F0;" vertex="1" parent="1">
                    <mxGeometry x="170" y="160" width="520" height="200" as="geometry"/>
                </mxCell>
                <mxCell id="3" value="media-item" style="swimlane;whiteSpace=wrap;html=1;strokeColor=#006EAF;fillColor=#1ba1e2;fontColor=#ffffff;" vertex="1" parent="2">
                    <mxGeometry x="40" y="60" width="115" height="70" as="geometry"/>
                </mxCell>
                <mxCell id="4" value="media-item" style="swimlane;whiteSpace=wrap;html=1;strokeColor=#006EAF;fillColor=#1ba1e2;fontColor=#ffffff;" vertex="1" parent="2">
                    <mxGeometry x="200" y="60" width="115" height="70" as="geometry"/>
                </mxCell>
                <mxCell id="5" value="media-item" style="swimlane;whiteSpace=wrap;html=1;strokeColor=#006EAF;fillColor=#1ba1e2;fontColor=#ffffff;" vertex="1" parent="2">
                    <mxGeometry x="360" y="60" width="115" height="70" as="geometry"/>
                </mxCell>
                <mxCell id="6" value="media" style="swimlane;whiteSpace=wrap;html=1;fillColor=#6a00ff;fontColor=#ffffff;strokeColor=#F0F0F0;" vertex="1" parent="1">
                    <mxGeometry x="780" y="20" width="520" height="540" as="geometry"/>
                </mxCell>
                <mxCell id="8" value="news-content" style="swimlane;whiteSpace=wrap;html=1;strokeColor=#B09500;fillColor=#e3c800;fontColor=#000000;" vertex="1" parent="6">
                    <mxGeometry x="200" y="130" width="290" height="390" as="geometry"/>
                </mxCell>
                <mxCell id="17" value="news-text" style="swimlane;whiteSpace=wrap;html=1;strokeColor=#006EAF;fillColor=#1ba1e2;fontColor=#ffffff;" vertex="1" parent="8">
                    <mxGeometry x="20" y="40" width="260" height="80" as="geometry"/>
                </mxCell>
                <mxCell id="18" value="news-links" style="swimlane;whiteSpace=wrap;html=1;strokeColor=#006EAF;fillColor=#1ba1e2;fontColor=#ffffff;" vertex="1" parent="8">
                    <mxGeometry x="20" y="140" width="260" height="80" as="geometry"/>
                </mxCell>
                <mxCell id="19" value="news-images" style="swimlane;whiteSpace=wrap;html=1;strokeColor=#006EAF;fillColor=#1ba1e2;fontColor=#ffffff;" vertex="1" parent="8">
                    <mxGeometry x="20" y="250" width="260" height="80" as="geometry"/>
                </mxCell>
                <mxCell id="10" value="page-toolbar" style="swimlane;whiteSpace=wrap;html=1;strokeColor=#B09500;fillColor=#e3c800;fontColor=#000000;" vertex="1" parent="6">
                    <mxGeometry x="40" y="30" width="450" height="80" as="geometry"/>
                </mxCell>
                <mxCell id="11" value="nav-home" style="swimlane;whiteSpace=wrap;html=1;strokeColor=#006EAF;fillColor=#1ba1e2;fontColor=#ffffff;" vertex="1" parent="10">
                    <mxGeometry x="10" y="30" width="80" height="40" as="geometry"/>
                </mxCell>
                <mxCell id="23" value="page-header" style="swimlane;whiteSpace=wrap;html=1;strokeColor=#006EAF;fillColor=#1ba1e2;fontColor=#ffffff;" vertex="1" parent="10">
                    <mxGeometry x="170" y="30" width="80" height="40" as="geometry"/>
                </mxCell>
                <mxCell id="24" value="serarch" style="swimlane;whiteSpace=wrap;html=1;strokeColor=#006EAF;fillColor=#1ba1e2;fontColor=#ffffff;" vertex="1" parent="10">
                    <mxGeometry x="350" y="30" width="80" height="40" as="geometry"/>
                </mxCell>
                <mxCell id="21" value="ui" style="swimlane;whiteSpace=wrap;html=1;strokeColor=#F0F0F0;fillColor=#F0F0F0;fontColor=#000000;" vertex="1" parent="6">
                    <mxGeometry x="40" y="130" width="140" height="140" as="geometry"/>
                </mxCell>
                <mxCell id="7" value="news-item" style="swimlane;whiteSpace=wrap;html=1;strokeColor=#006EAF;fillColor=#1ba1e2;fontColor=#ffffff;" vertex="1" parent="21">
                    <mxGeometry x="30" y="40" width="80" height="40" as="geometry"/>
                </mxCell>
                <mxCell id="22" value="news-item" style="swimlane;whiteSpace=wrap;html=1;strokeColor=#006EAF;fillColor=#1ba1e2;fontColor=#ffffff;" vertex="1" parent="21">
                    <mxGeometry x="30" y="90" width="80" height="40" as="geometry"/>
                </mxCell>
                <mxCell id="12" value="feature" style="swimlane;whiteSpace=wrap;html=1;strokeColor=#006EAF;fillColor=#1ba1e2;fontColor=#ffffff;" vertex="1" parent="1">
                    <mxGeometry x="170" y="-180" width="80" height="40" as="geometry"/>
                </mxCell>
                <mxCell id="13" value="page" style="swimlane;whiteSpace=wrap;html=1;strokeColor=#F0F0F0;fillColor=#6a00ff;fontColor=#ffffff;" vertex="1" parent="1">
                    <mxGeometry x="170" y="-310" width="80" height="40" as="geometry"/>
                </mxCell>
                <mxCell id="14" value="widget" style="swimlane;whiteSpace=wrap;html=1;strokeColor=#B09500;fillColor=#e3c800;fontColor=#000000;" vertex="1" parent="1">
                    <mxGeometry x="170" y="-250" width="80" height="40" as="geometry"/>
                </mxCell>
                <mxCell id="15" value="shared" style="swimlane;whiteSpace=wrap;html=1;strokeColor=#005700;fillColor=#008a00;fontColor=#ffffff;" vertex="1" parent="1">
                    <mxGeometry x="170" y="-50" width="80" height="40" as="geometry"/>
                </mxCell>
                <mxCell id="16" value="entity" style="swimlane;whiteSpace=wrap;html=1;strokeColor=#C73500;fillColor=#fa6800;fontColor=#000000;" vertex="1" parent="1">
                    <mxGeometry x="170" y="-120" width="80" height="40" as="geometry"/>
                </mxCell>
                <mxCell id="20" value="&amp;lt;tag&amp;gt;" style="swimlane;whiteSpace=wrap;html=1;strokeColor=#F0F0F0;fillColor=#F0F0F0;fontColor=#000000;" vertex="1" parent="1">
                    <mxGeometry x="170" y="-380" width="80" height="40" as="geometry"/>
                </mxCell>
            </root>
        </mxGraphModel>
    </diagram>
</mxfile>